<svg xmlns="http://www.w3.org/2000/svg" width="800" height="600" viewBox="0 0 800 600" role="img" aria-label="Flat crochet coaster increases: 6 stitches in Round 1, 12 in Round 2, and 18 in Round 3."><defs><marker id="arrow" viewBox="0 0 10 10" refX="8" refY="5" markerWidth="7" markerHeight="7" orient="auto-start-reverse"><path d="M0 0L10 5L0 10z" fill="#bb7153"/></marker></defs><style>@media(max-width:520px){.stage-label{font-size:31px!important}.svg-heading{font-size:24px!important}}</style><rect width="800" height="600" rx="24" fill="#f7f4ed"/><text class="svg-heading" x="28" y="39" fill="#49534d" font-family="Arial,sans-serif" font-size="21" font-weight="700">VISUAL GUIDE</text><rect x="18" y="53" width="764" height="168" rx="18" fill="#fffdfa" stroke="#e4ded3" stroke-width="2"/><circle cx="48" cy="89" r="19" fill="#e5eee6"/><text x="48" y="95" text-anchor="middle" fill="#55796d" font-family="Arial,sans-serif" font-size="16" font-weight="700">1</text><text class="stage-label" x="78" y="88" fill="#49534d" font-family="Arial,sans-serif" font-size="20" font-weight="700"><tspan x="78" dy="0">Round 1: 6</tspan><tspan x="78" dy="32">stitches</tspan></text><ellipse cx="427" cy="138" rx="35" ry="27" fill="none" stroke="#55796d" stroke-width="6"/><path d="M420.0 120.0 q7 -14 14 0" fill="none" stroke="#55796d" stroke-width="5" stroke-linecap="round" stroke-linejoin="round" /><path d="M441.65063509461095 132.5 q7 -14 14 0" fill="none" stroke="#55796d" stroke-width="5" stroke-linecap="round" stroke-linejoin="round" /><path d="M441.65063509461095 157.5 q7 -14 14 0" fill="none" stroke="#55796d" stroke-width="5" stroke-linecap="round" stroke-linejoin="round" /><path d="M420.0 170.0 q7 -14 14 0" fill="none" stroke="#55796d" stroke-width="5" stroke-linecap="round" stroke-linejoin="round" /><path d="M398.34936490538905 157.5 q7 -14 14 0" fill="none" stroke="#55796d" stroke-width="5" stroke-linecap="round" stroke-linejoin="round" /><path d="M398.34936490538905 132.5 q7 -14 14 0" fill="none" stroke="#55796d" stroke-width="5" stroke-linecap="round" stroke-linejoin="round" /><text x="582" y="148" fill="#49534d" font-family="Arial" font-size="24" font-weight="700">6 stitches</text><rect x="18" y="233" width="764" height="168" rx="18" fill="#fffdfa" stroke="#e4ded3" stroke-width="2"/><circle cx="48" cy="269" r="19" fill="#e5eee6"/><text x="48" y="275" text-anchor="middle" fill="#55796d" font-family="Arial,sans-serif" font-size="16" font-weight="700">2</text><text class="stage-label" x="78" y="268" fill="#49534d" font-family="Arial,sans-serif" font-size="20" font-weight="700"><tspan x="78" dy="0">Round 2: 12</tspan><tspan x="78" dy="32">stitches</tspan></text><ellipse cx="427" cy="318" rx="61" ry="47" fill="none" stroke="#55796d" stroke-width="6"/><path d="M420.0 279.0 q7 -14 14 0" fill="none" stroke="#55796d" stroke-width="5" stroke-linecap="round" stroke-linejoin="round" /><path d="M443.0 285.16283142591584 q7 -14 14 0" fill="none" stroke="#55796d" stroke-width="5" stroke-linecap="round" stroke-linejoin="round" /><path d="M459.83716857408416 302.0 q7 -14 14 0" fill="none" stroke="#55796d" stroke-width="5" stroke-linecap="round" stroke-linejoin="round" /><path d="M466.0 325.0 q7 -14 14 0" fill="none" stroke="#55796d" stroke-width="5" stroke-linecap="round" stroke-linejoin="round" /><path d="M459.83716857408416 348.0 q7 -14 14 0" fill="none" stroke="#55796d" stroke-width="5" stroke-linecap="round" stroke-linejoin="round" /><path d="M443.0 364.83716857408416 q7 -14 14 0" fill="none" stroke="#55796d" stroke-width="5" stroke-linecap="round" stroke-linejoin="round" /><path d="M420.0 371.0 q7 -14 14 0" fill="none" stroke="#55796d" stroke-width="5" stroke-linecap="round" stroke-linejoin="round" /><path d="M397.0 364.83716857408416 q7 -14 14 0" fill="none" stroke="#55796d" stroke-width="5" stroke-linecap="round" stroke-linejoin="round" /><path d="M380.16283142591584 348.0 q7 -14 14 0" fill="none" stroke="#55796d" stroke-width="5" stroke-linecap="round" stroke-linejoin="round" /><path d="M374.0 325.0 q7 -14 14 0" fill="none" stroke="#55796d" stroke-width="5" stroke-linecap="round" stroke-linejoin="round" /><path d="M380.16283142591584 302.0 q7 -14 14 0" fill="none" stroke="#55796d" stroke-width="5" stroke-linecap="round" stroke-linejoin="round" /><path d="M397.0 285.16283142591584 q7 -14 14 0" fill="none" stroke="#55796d" stroke-width="5" stroke-linecap="round" stroke-linejoin="round" /><text x="582" y="328" fill="#49534d" font-family="Arial" font-size="24" font-weight="700">12 stitches</text><path d="M577 350 q32 20 64 0" fill="none" stroke="#bb7153" stroke-width="5" stroke-linecap="round" stroke-linejoin="round" /><text x="584" y="383" fill="#49534d" font-family="Arial" font-size="15">even increases</text><rect x="18" y="413" width="764" height="168" rx="18" fill="#fffdfa" stroke="#e4ded3" stroke-width="2"/><circle cx="48" cy="449" r="19" fill="#e5eee6"/><text x="48" y="455" text-anchor="middle" fill="#55796d" font-family="Arial,sans-serif" font-size="16" font-weight="700">3</text><text class="stage-label" x="78" y="448" fill="#49534d" font-family="Arial,sans-serif" font-size="20" font-weight="700"><tspan x="78" dy="0">Round 3: 18</tspan><tspan x="78" dy="32">stitches</tspan></text><ellipse cx="427" cy="498" rx="87" ry="67" fill="none" stroke="#55796d" stroke-width="6"/><path d="M420.0 438.0 q7 -14 14 0" fill="none" stroke="#55796d" stroke-width="5" stroke-linecap="round" stroke-linejoin="round" /><path d="M442.9153496028198 442.04059440734414 q7 -14 14 0" fill="none" stroke="#55796d" stroke-width="5" stroke-linecap="round" stroke-linejoin="round" /><path d="M463.06676984899815 453.67502231102844 q7 -14 14 0" fill="none" stroke="#55796d" stroke-width="5" stroke-linecap="round" stroke-linejoin="round" /><path d="M478.0237020535574 471.5 q7 -14 14 0" fill="none" stroke="#55796d" stroke-width="5" stroke-linecap="round" stroke-linejoin="round" /><path d="M485.98211945181794 493.36557209631565 q7 -14 14 0" fill="none" stroke="#55796d" stroke-width="5" stroke-linecap="round" stroke-linejoin="round" /><path d="M485.98211945181794 516.6344279036844 q7 -14 14 0" fill="none" stroke="#55796d" stroke-width="5" stroke-linecap="round" stroke-linejoin="round" /><path d="M478.0237020535574 538.5 q7 -14 14 0" fill="none" stroke="#55796d" stroke-width="5" stroke-linecap="round" stroke-linejoin="round" /><path d="M463.06676984899815 556.3249776889716 q7 -14 14 0" fill="none" stroke="#55796d" stroke-width="5" stroke-linecap="round" stroke-linejoin="round" /><path d="M442.9153496028198 567.9594055926559 q7 -14 14 0" fill="none" stroke="#55796d" stroke-width="5" stroke-linecap="round" stroke-linejoin="round" /><path d="M420.0 572.0 q7 -14 14 0" fill="none" stroke="#55796d" stroke-width="5" stroke-linecap="round" stroke-linejoin="round" /><path d="M397.0846503971802 567.9594055926559 q7 -14 14 0" fill="none" stroke="#55796d" stroke-width="5" stroke-linecap="round" stroke-linejoin="round" /><path d="M376.9332301510019 556.3249776889716 q7 -14 14 0" fill="none" stroke="#55796d" stroke-width="5" stroke-linecap="round" stroke-linejoin="round" /><path d="M361.9762979464426 538.5 q7 -14 14 0" fill="none" stroke="#55796d" stroke-width="5" stroke-linecap="round" stroke-linejoin="round" /><path d="M354.01788054818206 516.6344279036844 q7 -14 14 0" fill="none" stroke="#55796d" stroke-width="5" stroke-linecap="round" stroke-linejoin="round" /><path d="M354.01788054818206 493.3655720963157 q7 -14 14 0" fill="none" stroke="#55796d" stroke-width="5" stroke-linecap="round" stroke-linejoin="round" /><path d="M361.97629794644257 471.50000000000006 q7 -14 14 0" fill="none" stroke="#55796d" stroke-width="5" stroke-linecap="round" stroke-linejoin="round" /><path d="M376.93323015100185 453.6750223110285 q7 -14 14 0" fill="none" stroke="#55796d" stroke-width="5" stroke-linecap="round" stroke-linejoin="round" /><path d="M397.0846503971802 442.04059440734414 q7 -14 14 0" fill="none" stroke="#55796d" stroke-width="5" stroke-linecap="round" stroke-linejoin="round" /><text x="582" y="508" fill="#49534d" font-family="Arial" font-size="24" font-weight="700">18 stitches</text><path d="M577 530 q32 20 64 0" fill="none" stroke="#bb7153" stroke-width="5" stroke-linecap="round" stroke-linejoin="round" /><text x="584" y="563" fill="#49534d" font-family="Arial" font-size="15">even increases</text></svg>