<svg xmlns="http://www.w3.org/2000/svg" width="800" height="600" viewBox="0 0 800 600" role="img" aria-label="Crochet gauge check: make a pattern-stitch swatch, measure its center, and compare stitches and rows with the pattern."><defs><marker id="arrow" viewBox="0 0 10 10" refX="8" refY="5" markerWidth="7" markerHeight="7" orient="auto-start-reverse"><path d="M0 0L10 5L0 10z" fill="#bb7153"/></marker></defs><style>@media(max-width:520px){.stage-label{font-size:31px!important}.svg-heading{font-size:24px!important}}</style><rect width="800" height="600" rx="24" fill="#f7f4ed"/><text class="svg-heading" x="28" y="39" fill="#49534d" font-family="Arial,sans-serif" font-size="21" font-weight="700">VISUAL GUIDE</text><rect x="18" y="53" width="764" height="168" rx="18" fill="#fffdfa" stroke="#e4ded3" stroke-width="2"/><circle cx="48" cy="89" r="19" fill="#e5eee6"/><text x="48" y="95" text-anchor="middle" fill="#55796d" font-family="Arial,sans-serif" font-size="16" font-weight="700">1</text><text class="stage-label" x="78" y="88" fill="#49534d" font-family="Arial,sans-serif" font-size="20" font-weight="700"><tspan x="78" dy="0">Make a</tspan><tspan x="78" dy="32">stitch-</tspan><tspan x="78" dy="32">pattern</tspan><tspan x="78" dy="32">swatch</tspan></text><path d="M290 84 q18 -23 36 0 q-18 23 -36 0" fill="none" stroke="#55796d" stroke-width="6" stroke-linecap="round" stroke-linejoin="round" /><path d="M333 84 q18 -23 36 0 q-18 23 -36 0" fill="none" stroke="#55796d" stroke-width="6" stroke-linecap="round" stroke-linejoin="round" /><path d="M376 84 q18 -23 36 0 q-18 23 -36 0" fill="none" stroke="#55796d" stroke-width="6" stroke-linecap="round" stroke-linejoin="round" /><path d="M419 84 q18 -23 36 0 q-18 23 -36 0" fill="none" stroke="#55796d" stroke-width="6" stroke-linecap="round" stroke-linejoin="round" /><path d="M462 84 q18 -23 36 0 q-18 23 -36 0" fill="none" stroke="#55796d" stroke-width="6" stroke-linecap="round" stroke-linejoin="round" /><path d="M505 84 q18 -23 36 0 q-18 23 -36 0" fill="none" stroke="#55796d" stroke-width="6" stroke-linecap="round" stroke-linejoin="round" /><path d="M308 119 q18 -23 36 0 q-18 23 -36 0" fill="none" stroke="#55796d" stroke-width="6" stroke-linecap="round" stroke-linejoin="round" /><path d="M351 119 q18 -23 36 0 q-18 23 -36 0" fill="none" stroke="#55796d" stroke-width="6" stroke-linecap="round" stroke-linejoin="round" /><path d="M394 119 q18 -23 36 0 q-18 23 -36 0" fill="none" stroke="#55796d" stroke-width="6" stroke-linecap="round" stroke-linejoin="round" /><path d="M437 119 q18 -23 36 0 q-18 23 -36 0" fill="none" stroke="#55796d" stroke-width="6" stroke-linecap="round" stroke-linejoin="round" /><path d="M480 119 q18 -23 36 0 q-18 23 -36 0" fill="none" stroke="#55796d" stroke-width="6" stroke-linecap="round" stroke-linejoin="round" /><path d="M523 119 q18 -23 36 0 q-18 23 -36 0" fill="none" stroke="#55796d" stroke-width="6" stroke-linecap="round" stroke-linejoin="round" /><path d="M290 154 q18 -23 36 0 q-18 23 -36 0" fill="none" stroke="#55796d" stroke-width="6" stroke-linecap="round" stroke-linejoin="round" /><path d="M333 154 q18 -23 36 0 q-18 23 -36 0" fill="none" stroke="#55796d" stroke-width="6" stroke-linecap="round" stroke-linejoin="round" /><path d="M376 154 q18 -23 36 0 q-18 23 -36 0" fill="none" stroke="#55796d" stroke-width="6" stroke-linecap="round" stroke-linejoin="round" /><path d="M419 154 q18 -23 36 0 q-18 23 -36 0" fill="none" stroke="#55796d" stroke-width="6" stroke-linecap="round" stroke-linejoin="round" /><path d="M462 154 q18 -23 36 0 q-18 23 -36 0" fill="none" stroke="#55796d" stroke-width="6" stroke-linecap="round" stroke-linejoin="round" /><path d="M505 154 q18 -23 36 0 q-18 23 -36 0" fill="none" stroke="#55796d" stroke-width="6" stroke-linecap="round" stroke-linejoin="round" /><path d="M308 189 q18 -23 36 0 q-18 23 -36 0" fill="none" stroke="#55796d" stroke-width="6" stroke-linecap="round" stroke-linejoin="round" /><path d="M351 189 q18 -23 36 0 q-18 23 -36 0" fill="none" stroke="#55796d" stroke-width="6" stroke-linecap="round" stroke-linejoin="round" /><path d="M394 189 q18 -23 36 0 q-18 23 -36 0" fill="none" stroke="#55796d" stroke-width="6" stroke-linecap="round" stroke-linejoin="round" /><path d="M437 189 q18 -23 36 0 q-18 23 -36 0" fill="none" stroke="#55796d" stroke-width="6" stroke-linecap="round" stroke-linejoin="round" /><path d="M480 189 q18 -23 36 0 q-18 23 -36 0" fill="none" stroke="#55796d" stroke-width="6" stroke-linecap="round" stroke-linejoin="round" /><path d="M523 189 q18 -23 36 0 q-18 23 -36 0" fill="none" stroke="#55796d" stroke-width="6" stroke-linecap="round" stroke-linejoin="round" /><text x="537" y="153" fill="#49534d" font-family="Arial" font-size="17">pattern stitch</text><rect x="18" y="233" width="764" height="168" rx="18" fill="#fffdfa" stroke="#e4ded3" stroke-width="2"/><circle cx="48" cy="269" r="19" fill="#e5eee6"/><text x="48" y="275" text-anchor="middle" fill="#55796d" font-family="Arial,sans-serif" font-size="16" font-weight="700">2</text><text class="stage-label" x="78" y="268" fill="#49534d" font-family="Arial,sans-serif" font-size="20" font-weight="700"><tspan x="78" dy="0">Measure the</tspan><tspan x="78" dy="32">center</tspan></text><path d="M290 264 q18 -23 36 0 q-18 23 -36 0" fill="none" stroke="#55796d" stroke-width="6" stroke-linecap="round" stroke-linejoin="round" /><path d="M333 264 q18 -23 36 0 q-18 23 -36 0" fill="none" stroke="#55796d" stroke-width="6" stroke-linecap="round" stroke-linejoin="round" /><path d="M376 264 q18 -23 36 0 q-18 23 -36 0" fill="none" stroke="#55796d" stroke-width="6" stroke-linecap="round" stroke-linejoin="round" /><path d="M419 264 q18 -23 36 0 q-18 23 -36 0" fill="none" stroke="#55796d" stroke-width="6" stroke-linecap="round" stroke-linejoin="round" /><path d="M462 264 q18 -23 36 0 q-18 23 -36 0" fill="none" stroke="#55796d" stroke-width="6" stroke-linecap="round" stroke-linejoin="round" /><path d="M505 264 q18 -23 36 0 q-18 23 -36 0" fill="none" stroke="#55796d" stroke-width="6" stroke-linecap="round" stroke-linejoin="round" /><path d="M308 299 q18 -23 36 0 q-18 23 -36 0" fill="none" stroke="#55796d" stroke-width="6" stroke-linecap="round" stroke-linejoin="round" /><path d="M351 299 q18 -23 36 0 q-18 23 -36 0" fill="none" stroke="#55796d" stroke-width="6" stroke-linecap="round" stroke-linejoin="round" /><path d="M394 299 q18 -23 36 0 q-18 23 -36 0" fill="none" stroke="#55796d" stroke-width="6" stroke-linecap="round" stroke-linejoin="round" /><path d="M437 299 q18 -23 36 0 q-18 23 -36 0" fill="none" stroke="#55796d" stroke-width="6" stroke-linecap="round" stroke-linejoin="round" /><path d="M480 299 q18 -23 36 0 q-18 23 -36 0" fill="none" stroke="#55796d" stroke-width="6" stroke-linecap="round" stroke-linejoin="round" /><path d="M523 299 q18 -23 36 0 q-18 23 -36 0" fill="none" stroke="#55796d" stroke-width="6" stroke-linecap="round" stroke-linejoin="round" /><path d="M290 334 q18 -23 36 0 q-18 23 -36 0" fill="none" stroke="#55796d" stroke-width="6" stroke-linecap="round" stroke-linejoin="round" /><path d="M333 334 q18 -23 36 0 q-18 23 -36 0" fill="none" stroke="#55796d" stroke-width="6" stroke-linecap="round" stroke-linejoin="round" /><path d="M376 334 q18 -23 36 0 q-18 23 -36 0" fill="none" stroke="#55796d" stroke-width="6" stroke-linecap="round" stroke-linejoin="round" /><path d="M419 334 q18 -23 36 0 q-18 23 -36 0" fill="none" stroke="#55796d" stroke-width="6" stroke-linecap="round" stroke-linejoin="round" /><path d="M462 334 q18 -23 36 0 q-18 23 -36 0" fill="none" stroke="#55796d" stroke-width="6" stroke-linecap="round" stroke-linejoin="round" /><path d="M505 334 q18 -23 36 0 q-18 23 -36 0" fill="none" stroke="#55796d" stroke-width="6" stroke-linecap="round" stroke-linejoin="round" /><path d="M308 369 q18 -23 36 0 q-18 23 -36 0" fill="none" stroke="#55796d" stroke-width="6" stroke-linecap="round" stroke-linejoin="round" /><path d="M351 369 q18 -23 36 0 q-18 23 -36 0" fill="none" stroke="#55796d" stroke-width="6" stroke-linecap="round" stroke-linejoin="round" /><path d="M394 369 q18 -23 36 0 q-18 23 -36 0" fill="none" stroke="#55796d" stroke-width="6" stroke-linecap="round" stroke-linejoin="round" /><path d="M437 369 q18 -23 36 0 q-18 23 -36 0" fill="none" stroke="#55796d" stroke-width="6" stroke-linecap="round" stroke-linejoin="round" /><path d="M480 369 q18 -23 36 0 q-18 23 -36 0" fill="none" stroke="#55796d" stroke-width="6" stroke-linecap="round" stroke-linejoin="round" /><path d="M523 369 q18 -23 36 0 q-18 23 -36 0" fill="none" stroke="#55796d" stroke-width="6" stroke-linecap="round" stroke-linejoin="round" /><path d="M290 380 L492 380" fill="none" stroke="#d5a45c" stroke-width="5" stroke-linecap="round"/><path d="M290 368 L290 388" fill="none" stroke="#d5a45c" stroke-width="5" stroke-linecap="round"/><path d="M492 368 L492 388" fill="none" stroke="#d5a45c" stroke-width="5" stroke-linecap="round"/><path d="M272 269 L272 375" fill="none" stroke="#d5a45c" stroke-width="5" stroke-linecap="round"/><text x="512" y="328" fill="#49534d" font-family="Arial" font-size="17">measure center</text><rect x="18" y="413" width="764" height="168" rx="18" fill="#fffdfa" stroke="#e4ded3" stroke-width="2"/><circle cx="48" cy="449" r="19" fill="#e5eee6"/><text x="48" y="455" text-anchor="middle" fill="#55796d" font-family="Arial,sans-serif" font-size="16" font-weight="700">3</text><text class="stage-label" x="78" y="448" fill="#49534d" font-family="Arial,sans-serif" font-size="20" font-weight="700"><tspan x="78" dy="0">Compare with</tspan><tspan x="78" dy="32">pattern</tspan><tspan x="78" dy="32">gauge</tspan></text><rect x="292" y="445" width="175" height="112" rx="12" fill="#fffdfa" stroke="#c9d3c8" stroke-width="4"/><text x="310" y="483" fill="#49534d" font-family="Arial" font-size="17">pattern gauge</text><text x="310" y="519" fill="#55796d" font-family="Arial" font-size="17">compare stitches + rows</text><path d="M480 500 L552 500" fill="none" stroke="#bb7153" stroke-width="4" stroke-linecap="round" stroke-linejoin="round" marker-end="url(#arrow)"/><path d="M562 527 q18 -35 36 0 q-18 26 -36 0" fill="none" stroke="#55796d" stroke-width="6" stroke-linecap="round" stroke-linejoin="round" /><path d="M607 527 q18 -35 36 0 q-18 26 -36 0" fill="none" stroke="#55796d" stroke-width="6" stroke-linecap="round" stroke-linejoin="round" /><path d="M652 527 q18 -35 36 0 q-18 26 -36 0" fill="none" stroke="#55796d" stroke-width="6" stroke-linecap="round" stroke-linejoin="round" /></svg>